# xmcd
#
# Track frame offsets: 
#        150
#        33505
#        65057
#        87225
#        116170
#        140620
#        162127
#        187842
#        208510
#        234437
#
# Disc length: 3429 seconds
#
# Revision: 0
# Processed by: cddbd v1.5.2PL0 Copyright (c) Steve Scherf et al.
# Submitted via: ExactAudioCopy v1.0b3
#
DISCID=870d630a
DTITLE=Thai Chau, Huong Lan - Ve Lai Doi Sim
DYEAR=1996
DGENRE=
TTITLE0=Tinh ngan doi bo
TTITLE1=Huong Lan - Ve lai doi sim
TTITLE2=Thai Chau - Em di mua cuoi
TTITLE3=Huong Lan - Nhu luc binh troi
TTITLE4=Thai Chau - Mai lo minh xa nhau
TTITLE5=Thai Chau - Le sau roi
TTITLE6=Xin tra lai thoi gian
TTITLE7=Thai Chau - Mua nang ha
TTITLE8=Huong Lan - Tinh giong bao
TTITLE9=Thai Chau - Tinh yeu den do em
EXTD=
EXTT0=
EXTT1=
EXTT2=
EXTT3=
EXTT4=
EXTT5=
EXTT6=
EXTT7=
EXTT8=
EXTT9=
PLAYORDER=
